<?xml version="1.0" encoding="utf-8"?>
<!-- Generator: Adobe Illustrator 16.0.0, SVG Export Plug-In . SVG Version: 6.00 Build 0)  -->
<!DOCTYPE svg PUBLIC "-//W3C//DTD SVG 1.1//EN" "http://www.w3.org/Graphics/SVG/1.1/DTD/svg11.dtd">
<svg version="1.1" id="Layer_1" xmlns="http://www.w3.org/2000/svg" xmlns:xlink="http://www.w3.org/1999/xlink" x="0px" y="0px"
	 width="158.004px" height="157.002px" viewBox="0 0 158.004 157.002" enable-background="new 0 0 158.004 157.002"
	 xml:space="preserve">
<path fill="none" d="M108.002,4.002c0,0.665,0,1.333,0,1.999c1.667,0,3.333,0,5,0c0,0.667,0,1.333,0,2c1.667,0,3.333,0,5,0
	c0,1,0,1.999,0,3.001c3.543,0.317,3.949,1.313,7,1.999c0,0.667,0,1.333,0,2.001c3.415,0.573,6.118,1.701,7.001,4.999c1,0,2,0,3,0
	c0,0.999,0,2.001,0,3c0.667,0,1.333,0,2,0c0,0.666,0,1.333,0,2.001c0.667,0,1.333,0,2,0c0.333,1.333,0.667,2.667,1,4
	c0.667,0,1.333,0,2,0c0,0.999,0,1.999,0,3c0.667,0,1.333,0,2,0c0.724,2.761,0.278,2.236,3,2.998c0,1.333,0,2.667,0,4
	c0.667,0,1.333,0,2,0c0.286,2.273,0.13,2.595,1,4.002c0.333,0,0.667,0,1,0c0,0.999,0,1.999,0,2.998c1,0.668,2.002,1.335,3.001,2.001
	c0,1.999,0,4,0,6.001c0.667,0.331,1.333,0.665,2,0.999c0,2.667,0,5.333,0,8c0.667,0.333,1.333,0.667,2,0.999c0,4,0,8.001,0,12.001
	c0,5.333,0,10.666,0,15.999c-0.333,0-0.667,0-1,0c0,0.668,0,1.333,0,2.001c-0.333,0-0.667,0-1,0c0,2.667,0,5.333,0,8
	c-0.667,0.334-1.333,0.667-2,0.999c0,2.335,0,4.667,0,7c-1,0-2.001,0-3.001,0c0,1.667,0,3.334,0,5.001c-0.667,0-1.333,0-2,0
	c0,1.334,0,2.667,0,4c-0.667,0-1.333,0-2,0c-0.724,2.764-0.278,2.236-3,3c-0.667,2.333-1.333,4.668-2,7c-1,0-2,0-3,0
	c-0.562,3.137-0.974,4.189-4,5c0,0.667,0,1.333,0,2c-1,0-2,0-3,0c0,0.666,0,1.334,0,1.999c-0.667,0-1.333,0-2,0
	c0,1.002,0,2.001,0,3.001c-1,0-2.001,0-3.001,0c-0.723,2.764-0.277,2.236-3,3c0,0.334,0,0.668,0,0.999c-1,0-2,0-3,0
	c-0.333,1.002-0.667,2.001-1,3.001c-1.667,0-3.333,0-5,0c-0.333,0.667-0.667,1.333-1,2.001c-1,0-2,0-3,0
	c-0.333,0.665-0.667,1.333-1,1.999c-2,0-4.001,0-6.001,0c-0.332,0.999-0.667,2-1,3c-2.665,0-5.333,0-7.999,0
	c0,0.334,0,0.668,0,0.999c-0.667,0-1.333,0-2,0c0,0.334,0,0.668,0,1.002c-6,0-12.001,0-18,0c-3.333,0-6.667,0-10,0
	c-0.333-0.668-0.667-1.333-1-2.001c-2.666,0-5.334,0-8.001,0c0-0.666,0-1.333,0-1.999c-2.332-0.334-4.666-0.668-7-1.001
	c0-0.666,0-1.334,0-1.999c-1.667,0-3.333,0-5,0c0-0.668,0-1.334,0-2.001c-1.333,0-2.667,0-4,0c-0.981-3.638-4.261-4.354-7.999-4.999
	c0-0.668,0-1.334,0-2.001c-0.667,0-1.335,0-2.001,0c0-0.666,0-1.334,0-1.999c-3.929-1.073-2.875-2.362-5-5.001c-1-0.334-2-0.666-3-1
	c0-0.334,0-0.668,0-0.999c-1-0.668-2-1.333-3-2.001c-0.333-1-0.667-2.001-1-3c-0.667,0-1.333,0-2,0c0-1,0-1.999,0-3.001
	c-1,0-2,0-3,0c0-1.333,0-2.666,0-3.999c-0.667,0-1.333,0-2,0c-0.578-6.204-4.247-8.5-5.001-15c-0.667,0-1.333,0-2,0
	c0-2.333,0-4.668,0-7c-0.667,0-1.333,0-2,0c-0.667-7.666-1.333-15.334-2-22.999c0.333,0,0.667,0,1,0c0-2.335,0-4.668,0-7
	c0.333,0,0.667,0,1,0C2,65.335,2,62.667,2,60c0.333,0,0.667,0,1,0c0-0.665,0-1.333,0-1.999c0.333,0,0.667,0,1,0c0-2,0-3.999,0-6
	c0.667-0.334,1.333-0.666,2-1C6,49.334,6,47.667,6,46c1,0,2.001,0,3.001,0c0-1.665,0-3.332,0-4.999c0.667,0,1.333,0,2,0
	c0-1.333,0-2.667,0-4c0.667,0,1.333,0,2,0c0.573-3.414,1.702-6.117,5-7c0-0.999,0-2.001,0-3c1,0,2,0,3,0c0-0.666,0-1.333,0-1.999
	c0.667,0,1.333,0,2,0c0-0.668,0-1.335,0-2.001c0.667,0,1.333,0,2,0c0-0.999,0-2.001,0-3c1,0,2,0,3,0c0-0.666,0-1.334,0-1.999
	c0.667,0,1.333,0,2,0c0-1.002,0-2.001,0-3c3.543-0.317,3.949-1.315,7.001-2.001c0-0.666,0-1.334,0-1.999
	c1.333-0.334,2.667-0.668,4-1.002c0.333-0.665,0.667-1.333,1-1.999c1,0,2,0,3,0c0.333-0.667,0.667-1.333,1-2c1.667,0,3.333,0,5,0
	c0-0.666,0-1.334,0-1.999C54.34,3.976,55.53,3.476,58.003,3c0-0.665,0-1.333,0-1.999c9.665-0.333,19.334-0.667,29-1.001
	c0,0.334,0,0.668,0,1.001c4.333,0,8.666,0,12.999,0c0.333,0.666,0.667,1.334,1,1.999C102.654,4.195,105.076,3.937,108.002,4.002
	L108.002,4.002z"/>
</svg>
